# xmcd
#
# Track frame offsets:
#	150
#	10078
#	21378
#	32471
#	43421
#	53910
#	66349
#	77006
#	87244
#	97460
#
# Disc length: 1440 seconds
#
# Revision: 1
# Processed by: cddbd v1.5.2PL0 Copyright (c) Steve Scherf et al.
# Submitted via: EasyCDDAExtractor 6.2.0.3
#
DISCID=83059e0a
DTITLE=Roland Lebrun - Soldat Lebrun et sa famille
DYEAR=1900
DGENRE=Western
TTITLE0=Le petit Noel canadien
TTITLE1=Bonne fete maman
TTITLE2=Les yeux noirs
TTITLE3=Souvenirs d'un carnaval
TTITLE4=Tu vas t'arreter
TTITLE5=Souvenir de toi
TTITLE6=Jubile d'or
TTITLE7=Au brillant des etoiles
TTITLE8=Pour oublier cette vie
TTITLE9=Je t'ai aime, je t'aime encore
EXTD=
EXTT0=
EXTT1=
EXTT2=
EXTT3=
EXTT4=
EXTT5=
EXTT6=
EXTT7=
EXTT8=
EXTT9=
PLAYORDER=
